<?xml version="1.0" encoding="UTF-8" standalone="no"?><svg xmlns="http://www.w3.org/2000/svg" xmlns:xlink="http://www.w3.org/1999/xlink" contentStyleType="text/css" height="1280px" preserveAspectRatio="none" style="width:1105px;height:1280px;background:#FFFFFF;" version="1.1" viewBox="0 0 1105 1280" width="1105px" zoomAndPan="magnify"><defs/><g><rect height="26.2969" style="stroke:#00000000;stroke-width:1.0;fill:none;" width="126" x="482.75" y="5"/><text fill="#000000" font-family="sans-serif" font-size="14" font-weight="bold" lengthAdjust="spacing" textLength="116" x="487.75" y="22.9951">Class Diagram</text><!--MD5=[e6986b0aedae210c181dd56b2328536e]
entity JsonMovieFile--><g id="elem_JsonMovieFile"><ellipse cx="949" cy="1013.7969" fill="#F1F1F1" rx="8" ry="8" style="stroke:#181818;stroke-width:0.5;"/><text fill="#000000" font-family="sans-serif" font-size="14" lengthAdjust="spacing" textLength="96" x="901" y="1043.792">JsonMovieFile</text></g><!--MD5=[1093562de430f7898a3d6b29386f728c]
class IJsonOperator--><g id="elem_IJsonOperator"><rect codeLine="5" fill="#F1F1F1" height="113.1875" id="IJsonOperator" rx="2.5" ry="2.5" style="stroke:#181818;stroke-width:0.5;" width="286" x="811" y="407.2969"/><ellipse cx="901.25" cy="423.2969" fill="#B4A7E5" rx="11" ry="11" style="stroke:#181818;stroke-width:1.0;"/><path d="M902.2031,420.0781 L903.9219,420.0781 C904.3125,420.0781 904.5,420.0469 904.625,419.9688 C904.8906,419.8125 905.0313,419.5313 905.0313,419.2344 C905.0313,418.9688 904.9219,418.7031 904.6875,418.5313 C904.5156,418.4219 904.375,418.3906 903.9219,418.3906 L898.7813,418.3906 C898.3438,418.3906 898.2188,418.4063 898.0625,418.5 C897.8125,418.6563 897.6563,418.9531 897.6563,419.2344 C897.6563,419.5156 897.7969,419.7656 898.0156,419.9375 C898.1719,420.0469 898.3594,420.0781 898.7813,420.0781 L900.5,420.0781 L900.5,426.5938 L898.7813,426.5938 C898.3438,426.5938 898.2188,426.6094 898.0625,426.7188 C897.8125,426.875 897.6563,427.1563 897.6563,427.4531 C897.6563,427.7031 897.7969,427.9688 898.0156,428.125 C898.1719,428.25 898.375,428.2969 898.7813,428.2969 L903.9219,428.2969 C904.6719,428.2969 905.0313,428.0156 905.0313,427.4531 C905.0313,427.1719 904.9219,426.9219 904.6875,426.75 C904.5156,426.625 904.375,426.5938 903.9219,426.5938 L902.2031,426.5938 L902.2031,420.0781 Z " fill="#000000"/><text fill="#000000" font-family="sans-serif" font-size="14" font-style="italic" lengthAdjust="spacing" textLength="97" x="921.75" y="428.1436">IJsonOperator</text><line style="stroke:#181818;stroke-width:0.5;" x1="812" x2="1096" y1="439.2969" y2="439.2969"/><line style="stroke:#181818;stroke-width:0.5;" x1="812" x2="1096" y1="447.2969" y2="447.2969"/><ellipse cx="822" cy="458.2969" fill="#84BE84" rx="3" ry="3" style="stroke:#038048;stroke-width:1.0;"/><text fill="#000000" font-family="sans-serif" font-size="14" lengthAdjust="spacing" textLength="218" x="831" y="464.292">IJsonOperator(string filename)</text><ellipse cx="822" cy="474.5938" fill="#84BE84" rx="3" ry="3" style="stroke:#038048;stroke-width:1.0;"/><text fill="#000000" font-family="sans-serif" font-size="14" lengthAdjust="spacing" textLength="112" x="831" y="480.5889">Get(int id): json</text><ellipse cx="822" cy="490.8906" fill="#84BE84" rx="3" ry="3" style="stroke:#038048;stroke-width:1.0;"/><text fill="#000000" font-family="sans-serif" font-size="14" lengthAdjust="spacing" textLength="260" x="831" y="496.8857">Search(string key, string value): json</text><ellipse cx="822" cy="507.1875" fill="#84BE84" rx="3" ry="3" style="stroke:#038048;stroke-width:1.0;"/><text fill="#000000" font-family="sans-serif" font-size="14" lengthAdjust="spacing" textLength="151" x="831" y="513.1826">Sort(string key): json</text></g><!--MD5=[b0715620bd1df92ee2fccda723b41947]
class MovieJsonOperator--><g id="elem_MovieJsonOperator"><rect codeLine="12" fill="#F1F1F1" height="113.1875" id="MovieJsonOperator" rx="2.5" ry="2.5" style="stroke:#181818;stroke-width:0.5;" width="299" x="799.5" y="580.2969"/><ellipse cx="876.25" cy="596.2969" fill="#ADD1B2" rx="11" ry="11" style="stroke:#181818;stroke-width:1.0;"/><path d="M878.5938,591.9688 C877.6563,591.5313 877.0625,591.3906 876.1875,591.3906 C873.5625,591.3906 871.5625,593.4688 871.5625,596.1875 L871.5625,597.3125 C871.5625,599.8906 873.6719,601.7813 876.5625,601.7813 C877.7813,601.7813 878.9375,601.4844 879.6875,600.9375 C880.2656,600.5313 880.5938,600.0781 880.5938,599.6875 C880.5938,599.2344 880.2031,598.8438 879.7344,598.8438 C879.5156,598.8438 879.3125,598.9219 879.125,599.1094 C878.6719,599.5938 878.6719,599.5938 878.4844,599.6875 C878.0625,599.9531 877.375,600.0781 876.6094,600.0781 C874.5625,600.0781 873.2656,598.9844 873.2656,597.2813 L873.2656,596.1875 C873.2656,594.4063 874.5156,593.0938 876.25,593.0938 C876.8281,593.0938 877.4375,593.25 877.9063,593.5 C878.3906,593.7813 878.5625,594 878.6563,594.4063 C878.7188,594.8125 878.75,594.9375 878.8906,595.0625 C879.0313,595.2031 879.2656,595.3125 879.4844,595.3125 C879.75,595.3125 880.0156,595.1719 880.1875,594.9531 C880.2969,594.7969 880.3281,594.6094 880.3281,594.1875 L880.3281,592.7656 C880.3281,592.3281 880.3125,592.2031 880.2188,592.0469 C880.0625,591.7813 879.7813,591.6406 879.4844,591.6406 C879.1875,591.6406 878.9844,591.7344 878.7656,592.0469 L878.5938,591.9688 Z " fill="#000000"/><text fill="#000000" font-family="sans-serif" font-size="14" lengthAdjust="spacing" textLength="137" x="896.75" y="601.1436">MovieJsonOperator</text><line style="stroke:#181818;stroke-width:0.5;" x1="800.5" x2="1097.5" y1="612.2969" y2="612.2969"/><line style="stroke:#181818;stroke-width:0.5;" x1="800.5" x2="1097.5" y1="620.2969" y2="620.2969"/><ellipse cx="810.5" cy="631.2969" fill="#84BE84" rx="3" ry="3" style="stroke:#038048;stroke-width:1.0;"/><text fill="#000000" font-family="sans-serif" font-size="14" lengthAdjust="spacing" textLength="214" x="819.5" y="637.292">JsonOperator(string filename)</text><ellipse cx="810.5" cy="647.5938" fill="#84BE84" rx="3" ry="3" style="stroke:#038048;stroke-width:1.0;"/><text fill="#000000" font-family="sans-serif" font-size="14" lengthAdjust="spacing" textLength="125" x="819.5" y="653.5889">Get(int id): Movie</text><ellipse cx="810.5" cy="663.8906" fill="#84BE84" rx="3" ry="3" style="stroke:#038048;stroke-width:1.0;"/><text fill="#000000" font-family="sans-serif" font-size="14" lengthAdjust="spacing" textLength="273" x="819.5" y="669.8857">Search(string key, string value): Movie</text><ellipse cx="810.5" cy="680.1875" fill="#84BE84" rx="3" ry="3" style="stroke:#038048;stroke-width:1.0;"/><text fill="#000000" font-family="sans-serif" font-size="14" lengthAdjust="spacing" textLength="164" x="819.5" y="686.1826">Sort(string key): Movie</text></g><!--MD5=[6362efb9aaafd5fa7df7d6a8f10f9bfa]
class LoginManager--><g id="elem_LoginManager"><rect codeLine="19" fill="#F1F1F1" height="145.7813" id="LoginManager" rx="2.5" ry="2.5" style="stroke:#181818;stroke-width:0.5;" width="196" x="7" y="201.2969"/><ellipse cx="50.8" cy="217.2969" fill="#ADD1B2" rx="11" ry="11" style="stroke:#181818;stroke-width:1.0;"/><path d="M53.1438,212.9688 C52.2063,212.5313 51.6125,212.3906 50.7375,212.3906 C48.1125,212.3906 46.1125,214.4688 46.1125,217.1875 L46.1125,218.3125 C46.1125,220.8906 48.2219,222.7813 51.1125,222.7813 C52.3313,222.7813 53.4875,222.4844 54.2375,221.9375 C54.8156,221.5313 55.1438,221.0781 55.1438,220.6875 C55.1438,220.2344 54.7531,219.8438 54.2844,219.8438 C54.0656,219.8438 53.8625,219.9219 53.675,220.1094 C53.2219,220.5938 53.2219,220.5938 53.0344,220.6875 C52.6125,220.9531 51.925,221.0781 51.1594,221.0781 C49.1125,221.0781 47.8156,219.9844 47.8156,218.2813 L47.8156,217.1875 C47.8156,215.4063 49.0656,214.0938 50.8,214.0938 C51.3781,214.0938 51.9875,214.25 52.4563,214.5 C52.9406,214.7813 53.1125,215 53.2063,215.4063 C53.2688,215.8125 53.3,215.9375 53.4406,216.0625 C53.5813,216.2031 53.8156,216.3125 54.0344,216.3125 C54.3,216.3125 54.5656,216.1719 54.7375,215.9531 C54.8469,215.7969 54.8781,215.6094 54.8781,215.1875 L54.8781,213.7656 C54.8781,213.3281 54.8625,213.2031 54.7688,213.0469 C54.6125,212.7813 54.3313,212.6406 54.0344,212.6406 C53.7375,212.6406 53.5344,212.7344 53.3156,213.0469 L53.1438,212.9688 Z " fill="#000000"/><text fill="#000000" font-family="sans-serif" font-size="14" lengthAdjust="spacing" textLength="100" x="71.2" y="222.1436">LoginManager</text><line style="stroke:#181818;stroke-width:0.5;" x1="8" x2="202" y1="233.2969" y2="233.2969"/><line style="stroke:#181818;stroke-width:0.5;" x1="8" x2="202" y1="241.2969" y2="241.2969"/><ellipse cx="18" cy="252.2969" fill="#84BE84" rx="3" ry="3" style="stroke:#038048;stroke-width:1.0;"/><text fill="#000000" font-family="sans-serif" font-size="14" lengthAdjust="spacing" textLength="88" x="27" y="258.292">createUser()</text><ellipse cx="18" cy="268.5938" fill="#84BE84" rx="3" ry="3" style="stroke:#038048;stroke-width:1.0;"/><text fill="#000000" font-family="sans-serif" font-size="14" lengthAdjust="spacing" textLength="90" x="27" y="274.5889">verifyLogIn()</text><ellipse cx="18" cy="284.8906" fill="#84BE84" rx="3" ry="3" style="stroke:#038048;stroke-width:1.0;"/><text fill="#000000" font-family="sans-serif" font-size="14" lengthAdjust="spacing" textLength="76" x="27" y="290.8857">logInUser()</text><ellipse cx="18" cy="301.1875" fill="#84BE84" rx="3" ry="3" style="stroke:#038048;stroke-width:1.0;"/><text fill="#000000" font-family="sans-serif" font-size="14" lengthAdjust="spacing" textLength="89" x="27" y="307.1826">logOutUser()</text><ellipse cx="18" cy="317.4844" fill="#84BE84" rx="3" ry="3" style="stroke:#038048;stroke-width:1.0;"/><text fill="#000000" font-family="sans-serif" font-size="14" lengthAdjust="spacing" textLength="138" x="27" y="323.4795">updateUserStatus()</text><ellipse cx="18" cy="333.7813" fill="#84BE84" rx="3" ry="3" style="stroke:#038048;stroke-width:1.0;"/><text fill="#000000" font-family="sans-serif" font-size="14" lengthAdjust="spacing" textLength="170" x="27" y="339.7764">updateUserPermission()</text></g><!--MD5=[fe69f0bb0d71470cb5883ea1186dd539]
class Ratings--><g id="elem_Ratings"><rect codeLine="28" fill="#F1F1F1" height="80.5938" id="Ratings" rx="2.5" ry="2.5" style="stroke:#181818;stroke-width:0.5;" width="86" x="664" y="233.7969"/><ellipse cx="679" cy="249.7969" fill="#ADD1B2" rx="11" ry="11" style="stroke:#181818;stroke-width:1.0;"/><path d="M681.3438,245.4688 C680.4063,245.0313 679.8125,244.8906 678.9375,244.8906 C676.3125,244.8906 674.3125,246.9688 674.3125,249.6875 L674.3125,250.8125 C674.3125,253.3906 676.4219,255.2813 679.3125,255.2813 C680.5313,255.2813 681.6875,254.9844 682.4375,254.4375 C683.0156,254.0313 683.3438,253.5781 683.3438,253.1875 C683.3438,252.7344 682.9531,252.3438 682.4844,252.3438 C682.2656,252.3438 682.0625,252.4219 681.875,252.6094 C681.4219,253.0938 681.4219,253.0938 681.2344,253.1875 C680.8125,253.4531 680.125,253.5781 679.3594,253.5781 C677.3125,253.5781 676.0156,252.4844 676.0156,250.7813 L676.0156,249.6875 C676.0156,247.9063 677.2656,246.5938 679,246.5938 C679.5781,246.5938 680.1875,246.75 680.6563,247 C681.1406,247.2813 681.3125,247.5 681.4063,247.9063 C681.4688,248.3125 681.5,248.4375 681.6406,248.5625 C681.7813,248.7031 682.0156,248.8125 682.2344,248.8125 C682.5,248.8125 682.7656,248.6719 682.9375,248.4531 C683.0469,248.2969 683.0781,248.1094 683.0781,247.6875 L683.0781,246.2656 C683.0781,245.8281 683.0625,245.7031 682.9688,245.5469 C682.8125,245.2813 682.5313,245.1406 682.2344,245.1406 C681.9375,245.1406 681.7344,245.2344 681.5156,245.5469 L681.3438,245.4688 Z " fill="#000000"/><text fill="#000000" font-family="sans-serif" font-size="14" lengthAdjust="spacing" textLength="54" x="693" y="254.6436">Ratings</text><line style="stroke:#181818;stroke-width:0.5;" x1="665" x2="749" y1="265.7969" y2="265.7969"/><ellipse cx="675" cy="276.7969" fill="none" rx="3" ry="3" style="stroke:#038048;stroke-width:1.0;"/><text fill="#000000" font-family="sans-serif" font-size="14" lengthAdjust="spacing" textLength="47" x="684" y="282.792">source</text><ellipse cx="675" cy="293.0938" fill="none" rx="3" ry="3" style="stroke:#038048;stroke-width:1.0;"/><text fill="#000000" font-family="sans-serif" font-size="14" lengthAdjust="spacing" textLength="37" x="684" y="299.0889">value</text><line style="stroke:#181818;stroke-width:0.5;" x1="665" x2="749" y1="306.3906" y2="306.3906"/></g><!--MD5=[e82dad0d7800e42c504b3477884e26f7]
class Ratings_List--><g id="elem_Ratings_List"><rect codeLine="33" fill="#F1F1F1" height="96.8906" id="Ratings_List" rx="2.5" ry="2.5" style="stroke:#181818;stroke-width:0.5;" width="138" x="638" y="44.2969"/><ellipse cx="661.55" cy="60.2969" fill="#ADD1B2" rx="11" ry="11" style="stroke:#181818;stroke-width:1.0;"/><path d="M663.8938,55.9688 C662.9563,55.5313 662.3625,55.3906 661.4875,55.3906 C658.8625,55.3906 656.8625,57.4688 656.8625,60.1875 L656.8625,61.3125 C656.8625,63.8906 658.9719,65.7813 661.8625,65.7813 C663.0813,65.7813 664.2375,65.4844 664.9875,64.9375 C665.5656,64.5313 665.8938,64.0781 665.8938,63.6875 C665.8938,63.2344 665.5031,62.8438 665.0344,62.8438 C664.8156,62.8438 664.6125,62.9219 664.425,63.1094 C663.9719,63.5938 663.9719,63.5938 663.7844,63.6875 C663.3625,63.9531 662.675,64.0781 661.9094,64.0781 C659.8625,64.0781 658.5656,62.9844 658.5656,61.2813 L658.5656,60.1875 C658.5656,58.4063 659.8156,57.0938 661.55,57.0938 C662.1281,57.0938 662.7375,57.25 663.2063,57.5 C663.6906,57.7813 663.8625,58 663.9563,58.4063 C664.0188,58.8125 664.05,58.9375 664.1906,59.0625 C664.3313,59.2031 664.5656,59.3125 664.7844,59.3125 C665.05,59.3125 665.3156,59.1719 665.4875,58.9531 C665.5969,58.7969 665.6281,58.6094 665.6281,58.1875 L665.6281,56.7656 C665.6281,56.3281 665.6125,56.2031 665.5188,56.0469 C665.3625,55.7813 665.0813,55.6406 664.7844,55.6406 C664.4875,55.6406 664.2844,55.7344 664.0656,56.0469 L663.8938,55.9688 Z " fill="#000000"/><text fill="#000000" font-family="sans-serif" font-size="14" lengthAdjust="spacing" textLength="87" x="677.45" y="65.1436">Ratings_List</text><line style="stroke:#181818;stroke-width:0.5;" x1="639" x2="775" y1="76.2969" y2="76.2969"/><rect fill="none" height="6" style="stroke:#C82930;stroke-width:1.0;" width="6" x="646" y="84.2969"/><text fill="#000000" font-family="sans-serif" font-size="14" lengthAdjust="spacing" textLength="64" x="658" y="93.292">Ratings[]</text><line style="stroke:#181818;stroke-width:0.5;" x1="639" x2="775" y1="100.5938" y2="100.5938"/><ellipse cx="649" cy="111.5938" fill="#84BE84" rx="3" ry="3" style="stroke:#038048;stroke-width:1.0;"/><text fill="#000000" font-family="sans-serif" font-size="14" lengthAdjust="spacing" textLength="112" x="658" y="117.5889">appendRating()</text><rect fill="#F24D5C" height="6" style="stroke:#C82930;stroke-width:1.0;" width="6" x="646" y="124.8906"/><text fill="#000000" font-family="sans-serif" font-size="14" lengthAdjust="spacing" textLength="112" x="658" y="133.8857">removeRating()</text></g><!--MD5=[e69084ab16b022bdbef99762ea85e9d6]
class Movie--><g id="elem_Movie"><rect codeLine="39" fill="#F1F1F1" height="520.6094" id="Movie" rx="2.5" ry="2.5" style="stroke:#181818;stroke-width:0.5;" width="138" x="640" y="753.2969"/><ellipse cx="683.8" cy="769.2969" fill="#ADD1B2" rx="11" ry="11" style="stroke:#181818;stroke-width:1.0;"/><path d="M686.1438,764.9688 C685.2063,764.5313 684.6125,764.3906 683.7375,764.3906 C681.1125,764.3906 679.1125,766.4688 679.1125,769.1875 L679.1125,770.3125 C679.1125,772.8906 681.2219,774.7813 684.1125,774.7813 C685.3313,774.7813 686.4875,774.4844 687.2375,773.9375 C687.8156,773.5313 688.1438,773.0781 688.1438,772.6875 C688.1438,772.2344 687.7531,771.8438 687.2844,771.8438 C687.0656,771.8438 686.8625,771.9219 686.675,772.1094 C686.2219,772.5938 686.2219,772.5938 686.0344,772.6875 C685.6125,772.9531 684.925,773.0781 684.1594,773.0781 C682.1125,773.0781 680.8156,771.9844 680.8156,770.2813 L680.8156,769.1875 C680.8156,767.4063 682.0656,766.0938 683.8,766.0938 C684.3781,766.0938 684.9875,766.25 685.4563,766.5 C685.9406,766.7813 686.1125,767 686.2063,767.4063 C686.2688,767.8125 686.3,767.9375 686.4406,768.0625 C686.5813,768.2031 686.8156,768.3125 687.0344,768.3125 C687.3,768.3125 687.5656,768.1719 687.7375,767.9531 C687.8469,767.7969 687.8781,767.6094 687.8781,767.1875 L687.8781,765.7656 C687.8781,765.3281 687.8625,765.2031 687.7688,765.0469 C687.6125,764.7813 687.3313,764.6406 687.0344,764.6406 C686.7375,764.6406 686.5344,764.7344 686.3156,765.0469 L686.1438,764.9688 Z " fill="#000000"/><text fill="#000000" font-family="sans-serif" font-size="14" lengthAdjust="spacing" textLength="42" x="704.2" y="774.1436">Movie</text><line style="stroke:#181818;stroke-width:0.5;" x1="641" x2="777" y1="785.2969" y2="785.2969"/><rect fill="none" height="6" style="stroke:#C82930;stroke-width:1.0;" width="6" x="648" y="793.2969"/><text fill="#000000" font-family="sans-serif" font-size="14" lengthAdjust="spacing" textLength="112" x="660" y="802.292">jsonSingleEntry</text><rect fill="none" height="6" style="stroke:#C82930;stroke-width:1.0;" width="6" x="648" y="809.5938"/><text fill="#000000" font-family="sans-serif" font-size="14" lengthAdjust="spacing" textLength="31" x="660" y="818.5889">title</text><rect fill="none" height="6" style="stroke:#C82930;stroke-width:1.0;" width="6" x="648" y="825.8906"/><text fill="#000000" font-family="sans-serif" font-size="14" lengthAdjust="spacing" textLength="31" x="660" y="834.8857">year</text><rect fill="none" height="6" style="stroke:#C82930;stroke-width:1.0;" width="6" x="648" y="842.1875"/><text fill="#000000" font-family="sans-serif" font-size="14" lengthAdjust="spacing" textLength="39" x="660" y="851.1826">rated</text><rect fill="none" height="6" style="stroke:#C82930;stroke-width:1.0;" width="6" x="648" y="858.4844"/><text fill="#000000" font-family="sans-serif" font-size="14" lengthAdjust="spacing" textLength="61" x="660" y="867.4795">released</text><rect fill="none" height="6" style="stroke:#C82930;stroke-width:1.0;" width="6" x="648" y="874.7813"/><text fill="#000000" font-family="sans-serif" font-size="14" lengthAdjust="spacing" textLength="57" x="660" y="883.7764">runtime</text><rect fill="none" height="6" style="stroke:#C82930;stroke-width:1.0;" width="6" x="648" y="891.0781"/><text fill="#000000" font-family="sans-serif" font-size="14" lengthAdjust="spacing" textLength="42" x="660" y="900.0732">genre</text><rect fill="none" height="6" style="stroke:#C82930;stroke-width:1.0;" width="6" x="648" y="907.375"/><text fill="#000000" font-family="sans-serif" font-size="14" lengthAdjust="spacing" textLength="58" x="660" y="916.3701">director</text><rect fill="none" height="6" style="stroke:#C82930;stroke-width:1.0;" width="6" x="648" y="923.6719"/><text fill="#000000" font-family="sans-serif" font-size="14" lengthAdjust="spacing" textLength="43" x="660" y="932.667">writer</text><rect fill="none" height="6" style="stroke:#C82930;stroke-width:1.0;" width="6" x="648" y="939.9688"/><text fill="#000000" font-family="sans-serif" font-size="14" lengthAdjust="spacing" textLength="67" x="660" y="948.9639">actor_list</text><rect fill="none" height="6" style="stroke:#C82930;stroke-width:1.0;" width="6" x="648" y="956.2656"/><text fill="#000000" font-family="sans-serif" font-size="14" lengthAdjust="spacing" textLength="30" x="660" y="965.2607">plot</text><rect fill="none" height="6" style="stroke:#C82930;stroke-width:1.0;" width="6" x="648" y="972.5625"/><text fill="#000000" font-family="sans-serif" font-size="14" lengthAdjust="spacing" textLength="64" x="660" y="981.5576">language</text><rect fill="none" height="6" style="stroke:#C82930;stroke-width:1.0;" width="6" x="648" y="988.8594"/><text fill="#000000" font-family="sans-serif" font-size="14" lengthAdjust="spacing" textLength="55" x="660" y="997.8545">country</text><rect fill="none" height="6" style="stroke:#C82930;stroke-width:1.0;" width="6" x="648" y="1005.1563"/><text fill="#000000" font-family="sans-serif" font-size="14" lengthAdjust="spacing" textLength="30" x="660" y="1014.1514">plot</text><rect fill="none" height="6" style="stroke:#C82930;stroke-width:1.0;" width="6" x="648" y="1021.4531"/><text fill="#000000" font-family="sans-serif" font-size="14" lengthAdjust="spacing" textLength="93" x="660" y="1030.4482">language_list</text><rect fill="none" height="6" style="stroke:#C82930;stroke-width:1.0;" width="6" x="648" y="1037.75"/><text fill="#000000" font-family="sans-serif" font-size="14" lengthAdjust="spacing" textLength="55" x="660" y="1046.7451">country</text><rect fill="none" height="6" style="stroke:#C82930;stroke-width:1.0;" width="6" x="648" y="1054.0469"/><text fill="#000000" font-family="sans-serif" font-size="14" lengthAdjust="spacing" textLength="49" x="660" y="1063.042">awards</text><rect fill="none" height="6" style="stroke:#C82930;stroke-width:1.0;" width="6" x="648" y="1070.3438"/><text fill="#000000" font-family="sans-serif" font-size="14" lengthAdjust="spacing" textLength="48" x="660" y="1079.3389">poster</text><rect fill="none" height="6" style="stroke:#C82930;stroke-width:1.0;" width="6" x="648" y="1086.6406"/><text fill="#000000" font-family="sans-serif" font-size="14" lengthAdjust="spacing" textLength="80" x="660" y="1095.6357">Rating_List</text><rect fill="none" height="6" style="stroke:#C82930;stroke-width:1.0;" width="6" x="648" y="1102.9375"/><text fill="#000000" font-family="sans-serif" font-size="14" lengthAdjust="spacing" textLength="77" x="660" y="1111.9326">metascore</text><rect fill="none" height="6" style="stroke:#C82930;stroke-width:1.0;" width="6" x="648" y="1119.2344"/><text fill="#000000" font-family="sans-serif" font-size="14" lengthAdjust="spacing" textLength="84" x="660" y="1128.2295">imdbRating</text><rect fill="none" height="6" style="stroke:#C82930;stroke-width:1.0;" width="6" x="648" y="1135.5313"/><text fill="#000000" font-family="sans-serif" font-size="14" lengthAdjust="spacing" textLength="79" x="660" y="1144.5264">imdbVotes</text><rect fill="none" height="6" style="stroke:#C82930;stroke-width:1.0;" width="6" x="648" y="1151.8281"/><text fill="#000000" font-family="sans-serif" font-size="14" lengthAdjust="spacing" textLength="52" x="660" y="1160.8232">imdbID</text><rect fill="none" height="6" style="stroke:#C82930;stroke-width:1.0;" width="6" x="648" y="1168.125"/><text fill="#000000" font-family="sans-serif" font-size="14" lengthAdjust="spacing" textLength="34" x="660" y="1177.1201">type</text><rect fill="none" height="6" style="stroke:#C82930;stroke-width:1.0;" width="6" x="648" y="1184.4219"/><text fill="#000000" font-family="sans-serif" font-size="14" lengthAdjust="spacing" textLength="85" x="660" y="1193.417">dvd_release</text><rect fill="none" height="6" style="stroke:#C82930;stroke-width:1.0;" width="6" x="648" y="1200.7188"/><text fill="#000000" font-family="sans-serif" font-size="14" lengthAdjust="spacing" textLength="76" x="660" y="1209.7139">box_office</text><rect fill="none" height="6" style="stroke:#C82930;stroke-width:1.0;" width="6" x="648" y="1217.0156"/><text fill="#000000" font-family="sans-serif" font-size="14" lengthAdjust="spacing" textLength="79" x="660" y="1226.0107">production</text><rect fill="none" height="6" style="stroke:#C82930;stroke-width:1.0;" width="6" x="648" y="1233.3125"/><text fill="#000000" font-family="sans-serif" font-size="14" lengthAdjust="spacing" textLength="57" x="660" y="1242.3076">website</text><rect fill="none" height="6" style="stroke:#C82930;stroke-width:1.0;" width="6" x="648" y="1249.6094"/><text fill="#000000" font-family="sans-serif" font-size="14" lengthAdjust="spacing" textLength="66" x="660" y="1258.6045">response</text><line style="stroke:#181818;stroke-width:0.5;" x1="641" x2="777" y1="1265.9063" y2="1265.9063"/></g><!--MD5=[3fd616f346a44cd59a91eb10b19e157c]
class User--><g id="elem_User"><rect codeLine="71" fill="#F1F1F1" height="113.1875" id="User" rx="2.5" ry="2.5" style="stroke:#181818;stroke-width:0.5;" width="305" x="93.5" y="407.2969"/><ellipse cx="226.25" cy="423.2969" fill="#ADD1B2" rx="11" ry="11" style="stroke:#181818;stroke-width:1.0;"/><path d="M228.5938,418.9688 C227.6563,418.5313 227.0625,418.3906 226.1875,418.3906 C223.5625,418.3906 221.5625,420.4688 221.5625,423.1875 L221.5625,424.3125 C221.5625,426.8906 223.6719,428.7813 226.5625,428.7813 C227.7813,428.7813 228.9375,428.4844 229.6875,427.9375 C230.2656,427.5313 230.5938,427.0781 230.5938,426.6875 C230.5938,426.2344 230.2031,425.8438 229.7344,425.8438 C229.5156,425.8438 229.3125,425.9219 229.125,426.1094 C228.6719,426.5938 228.6719,426.5938 228.4844,426.6875 C228.0625,426.9531 227.375,427.0781 226.6094,427.0781 C224.5625,427.0781 223.2656,425.9844 223.2656,424.2813 L223.2656,423.1875 C223.2656,421.4063 224.5156,420.0938 226.25,420.0938 C226.8281,420.0938 227.4375,420.25 227.9063,420.5 C228.3906,420.7813 228.5625,421 228.6563,421.4063 C228.7188,421.8125 228.75,421.9375 228.8906,422.0625 C229.0313,422.2031 229.2656,422.3125 229.4844,422.3125 C229.75,422.3125 230.0156,422.1719 230.1875,421.9531 C230.2969,421.7969 230.3281,421.6094 230.3281,421.1875 L230.3281,419.7656 C230.3281,419.3281 230.3125,419.2031 230.2188,419.0469 C230.0625,418.7813 229.7813,418.6406 229.4844,418.6406 C229.1875,418.6406 228.9844,418.7344 228.7656,419.0469 L228.5938,418.9688 Z " fill="#000000"/><text fill="#000000" font-family="sans-serif" font-size="14" lengthAdjust="spacing" textLength="31" x="246.75" y="428.1436">User</text><line style="stroke:#181818;stroke-width:0.5;" x1="94.5" x2="397.5" y1="439.2969" y2="439.2969"/><rect fill="none" height="6" style="stroke:#C82930;stroke-width:1.0;" width="6" x="101.5" y="447.2969"/><text fill="#000000" font-family="sans-serif" font-size="14" lengthAdjust="spacing" textLength="70" x="113.5" y="456.292">username</text><rect fill="none" height="6" style="stroke:#C82930;stroke-width:1.0;" width="6" x="101.5" y="463.5938"/><text fill="#000000" font-family="sans-serif" font-size="14" lengthAdjust="spacing" textLength="125" x="113.5" y="472.5889">password_hashed</text><rect fill="none" height="6" style="stroke:#C82930;stroke-width:1.0;" width="6" x="101.5" y="479.8906"/><text fill="#000000" font-family="sans-serif" font-size="14" lengthAdjust="spacing" textLength="109" x="113.5" y="488.8857">privledge_type</text><rect fill="none" height="6" style="stroke:#C82930;stroke-width:1.0;" width="6" x="101.5" y="496.1875"/><text fill="#000000" font-family="sans-serif" font-size="14" lengthAdjust="spacing" textLength="279" x="113.5" y="505.1826">movie_collections: MovieCollectionList</text><line style="stroke:#181818;stroke-width:0.5;" x1="94.5" x2="397.5" y1="512.4844" y2="512.4844"/></g><!--MD5=[85c34399a5c698d8ba010b21b979f516]
class LoginView--><g id="elem_UserView"><rect codeLine="78" fill="#F1F1F1" height="64.2969" id="LoginView" rx="2.5" ry="2.5" style="stroke:#181818;stroke-width:0.5;" width="97" x="238.5" y="242.2969"/><ellipse cx="253.5" cy="258.2969" fill="#ADD1B2" rx="11" ry="11" style="stroke:#181818;stroke-width:1.0;"/><path d="M255.8438,253.9688 C254.9063,253.5313 254.3125,253.3906 253.4375,253.3906 C250.8125,253.3906 248.8125,255.4688 248.8125,258.1875 L248.8125,259.3125 C248.8125,261.8906 250.9219,263.7813 253.8125,263.7813 C255.0313,263.7813 256.1875,263.4844 256.9375,262.9375 C257.5156,262.5313 257.8438,262.0781 257.8438,261.6875 C257.8438,261.2344 257.4531,260.8438 256.9844,260.8438 C256.7656,260.8438 256.5625,260.9219 256.375,261.1094 C255.9219,261.5938 255.9219,261.5938 255.7344,261.6875 C255.3125,261.9531 254.625,262.0781 253.8594,262.0781 C251.8125,262.0781 250.5156,260.9844 250.5156,259.2813 L250.5156,258.1875 C250.5156,256.4063 251.7656,255.0938 253.5,255.0938 C254.0781,255.0938 254.6875,255.25 255.1563,255.5 C255.6406,255.7813 255.8125,256 255.9063,256.4063 C255.9688,256.8125 256,256.9375 256.1406,257.0625 C256.2813,257.2031 256.5156,257.3125 256.7344,257.3125 C257,257.3125 257.2656,257.1719 257.4375,256.9531 C257.5469,256.7969 257.5781,256.6094 257.5781,256.1875 L257.5781,254.7656 C257.5781,254.3281 257.5625,254.2031 257.4688,254.0469 C257.3125,253.7813 257.0313,253.6406 256.7344,253.6406 C256.4375,253.6406 256.2344,253.7344 256.0156,254.0469 L255.8438,253.9688 Z " fill="#000000"/><text fill="#000000" font-family="sans-serif" font-size="14" lengthAdjust="spacing" textLength="65" x="267.5" y="263.1436">LoginView</text><line style="stroke:#181818;stroke-width:0.5;" x1="239.5" x2="334.5" y1="274.2969" y2="274.2969"/><line style="stroke:#181818;stroke-width:0.5;" x1="239.5" x2="334.5" y1="282.2969" y2="282.2969"/><ellipse cx="249.5" cy="293.2969" fill="#84BE84" rx="3" ry="3" style="stroke:#038048;stroke-width:1.0;"/><text fill="#000000" font-family="sans-serif" font-size="14" lengthAdjust="spacing" textLength="71" x="258.5" y="299.292">initialize()</text></g><!--MD5=[2364cab30172c86859cc25e3ef6581e4]
class MovieCollectionList--><g id="elem_MovieCollectionList"><rect codeLine="82" fill="#F1F1F1" height="80.5938" id="MovieCollectionList" rx="2.5" ry="2.5" style="stroke:#181818;stroke-width:0.5;" width="173" x="433.5" y="423.2969"/><ellipse cx="448.5" cy="439.2969" fill="#ADD1B2" rx="11" ry="11" style="stroke:#181818;stroke-width:1.0;"/><path d="M450.8438,434.9688 C449.9063,434.5313 449.3125,434.3906 448.4375,434.3906 C445.8125,434.3906 443.8125,436.4688 443.8125,439.1875 L443.8125,440.3125 C443.8125,442.8906 445.9219,444.7813 448.8125,444.7813 C450.0313,444.7813 451.1875,444.4844 451.9375,443.9375 C452.5156,443.5313 452.8438,443.0781 452.8438,442.6875 C452.8438,442.2344 452.4531,441.8438 451.9844,441.8438 C451.7656,441.8438 451.5625,441.9219 451.375,442.1094 C450.9219,442.5938 450.9219,442.5938 450.7344,442.6875 C450.3125,442.9531 449.625,443.0781 448.8594,443.0781 C446.8125,443.0781 445.5156,441.9844 445.5156,440.2813 L445.5156,439.1875 C445.5156,437.4063 446.7656,436.0938 448.5,436.0938 C449.0781,436.0938 449.6875,436.25 450.1563,436.5 C450.6406,436.7813 450.8125,437 450.9063,437.4063 C450.9688,437.8125 451,437.9375 451.1406,438.0625 C451.2813,438.2031 451.5156,438.3125 451.7344,438.3125 C452,438.3125 452.2656,438.1719 452.4375,437.9531 C452.5469,437.7969 452.5781,437.6094 452.5781,437.1875 L452.5781,435.7656 C452.5781,435.3281 452.5625,435.2031 452.4688,435.0469 C452.3125,434.7813 452.0313,434.6406 451.7344,434.6406 C451.4375,434.6406 451.2344,434.7344 451.0156,435.0469 L450.8438,434.9688 Z " fill="#000000"/><text fill="#000000" font-family="sans-serif" font-size="14" lengthAdjust="spacing" textLength="141" x="462.5" y="444.1436">MovieCollectionList</text><line style="stroke:#181818;stroke-width:0.5;" x1="434.5" x2="605.5" y1="455.2969" y2="455.2969"/><line style="stroke:#181818;stroke-width:0.5;" x1="434.5" x2="605.5" y1="463.2969" y2="463.2969"/><ellipse cx="444.5" cy="474.2969" fill="#84BE84" rx="3" ry="3" style="stroke:#038048;stroke-width:1.0;"/><text fill="#000000" font-family="sans-serif" font-size="14" lengthAdjust="spacing" textLength="138" x="453.5" y="480.292">appendCollection()</text><ellipse cx="444.5" cy="490.5938" fill="#84BE84" rx="3" ry="3" style="stroke:#038048;stroke-width:1.0;"/><text fill="#000000" font-family="sans-serif" font-size="14" lengthAdjust="spacing" textLength="138" x="453.5" y="496.5889">removeCollection()</text></g><!--MD5=[61d56b29176ddac7c3d0100b551a0f14]
class MovieCollection--><g id="elem_MovieCollection"><rect codeLine="87" fill="#F1F1F1" height="96.8906" id="MovieCollection" rx="2.5" ry="2.5" style="stroke:#181818;stroke-width:0.5;" width="190" x="425" y="588.2969"/><ellipse cx="459.35" cy="604.2969" fill="#ADD1B2" rx="11" ry="11" style="stroke:#181818;stroke-width:1.0;"/><path d="M461.6938,599.9688 C460.7563,599.5313 460.1625,599.3906 459.2875,599.3906 C456.6625,599.3906 454.6625,601.4688 454.6625,604.1875 L454.6625,605.3125 C454.6625,607.8906 456.7719,609.7813 459.6625,609.7813 C460.8813,609.7813 462.0375,609.4844 462.7875,608.9375 C463.3656,608.5313 463.6938,608.0781 463.6938,607.6875 C463.6938,607.2344 463.3031,606.8438 462.8344,606.8438 C462.6156,606.8438 462.4125,606.9219 462.225,607.1094 C461.7719,607.5938 461.7719,607.5938 461.5844,607.6875 C461.1625,607.9531 460.475,608.0781 459.7094,608.0781 C457.6625,608.0781 456.3656,606.9844 456.3656,605.2813 L456.3656,604.1875 C456.3656,602.4063 457.6156,601.0938 459.35,601.0938 C459.9281,601.0938 460.5375,601.25 461.0063,601.5 C461.4906,601.7813 461.6625,602 461.7563,602.4063 C461.8188,602.8125 461.85,602.9375 461.9906,603.0625 C462.1313,603.2031 462.3656,603.3125 462.5844,603.3125 C462.85,603.3125 463.1156,603.1719 463.2875,602.9531 C463.3969,602.7969 463.4281,602.6094 463.4281,602.1875 L463.4281,600.7656 C463.4281,600.3281 463.4125,600.2031 463.3188,600.0469 C463.1625,599.7813 462.8813,599.6406 462.5844,599.6406 C462.2875,599.6406 462.0844,599.7344 461.8656,600.0469 L461.6938,599.9688 Z " fill="#000000"/><text fill="#000000" font-family="sans-serif" font-size="14" lengthAdjust="spacing" textLength="115" x="477.65" y="609.1436">MovieCollection</text><line style="stroke:#181818;stroke-width:0.5;" x1="426" x2="614" y1="620.2969" y2="620.2969"/><text fill="#000000" font-family="sans-serif" font-size="14" lengthAdjust="spacing" textLength="90" x="431" y="637.292">List&lt;Movie&gt;</text><line style="stroke:#181818;stroke-width:0.5;" x1="426" x2="614" y1="644.5938" y2="644.5938"/><ellipse cx="436" cy="655.5938" fill="#84BE84" rx="3" ry="3" style="stroke:#038048;stroke-width:1.0;"/><text fill="#000000" font-family="sans-serif" font-size="14" lengthAdjust="spacing" textLength="135" x="445" y="661.5889">addMovie(MovieID)</text><ellipse cx="436" cy="671.8906" fill="#84BE84" rx="3" ry="3" style="stroke:#038048;stroke-width:1.0;"/><text fill="#000000" font-family="sans-serif" font-size="14" lengthAdjust="spacing" textLength="164" x="445" y="677.8857">removeMovie(MovieID)</text></g><!--MD5=[b16c698b7284c50d522a5088bc79a3e5]
class loginView--><g id="elem_loginView"><rect codeLine="93" fill="#F1F1F1" height="80.5938" id="loginView" rx="2.5" ry="2.5" style="stroke:#181818;stroke-width:0.5;" width="157" x="26.5" y="52.2969"/><ellipse cx="66.7" cy="68.2969" fill="#ADD1B2" rx="11" ry="11" style="stroke:#181818;stroke-width:1.0;"/><path d="M69.0438,63.9688 C68.1063,63.5313 67.5125,63.3906 66.6375,63.3906 C64.0125,63.3906 62.0125,65.4688 62.0125,68.1875 L62.0125,69.3125 C62.0125,71.8906 64.1219,73.7813 67.0125,73.7813 C68.2313,73.7813 69.3875,73.4844 70.1375,72.9375 C70.7156,72.5313 71.0438,72.0781 71.0438,71.6875 C71.0438,71.2344 70.6531,70.8438 70.1844,70.8438 C69.9656,70.8438 69.7625,70.9219 69.575,71.1094 C69.1219,71.5938 69.1219,71.5938 68.9344,71.6875 C68.5125,71.9531 67.825,72.0781 67.0594,72.0781 C65.0125,72.0781 63.7156,70.9844 63.7156,69.2813 L63.7156,68.1875 C63.7156,66.4063 64.9656,65.0938 66.7,65.0938 C67.2781,65.0938 67.8875,65.25 68.3563,65.5 C68.8406,65.7813 69.0125,66 69.1063,66.4063 C69.1688,66.8125 69.2,66.9375 69.3406,67.0625 C69.4813,67.2031 69.7156,67.3125 69.9344,67.3125 C70.2,67.3125 70.4656,67.1719 70.6375,66.9531 C70.7469,66.7969 70.7781,66.6094 70.7781,66.1875 L70.7781,64.7656 C70.7781,64.3281 70.7625,64.2031 70.6688,64.0469 C70.5125,63.7813 70.2313,63.6406 69.9344,63.6406 C69.6375,63.6406 69.4344,63.7344 69.2156,64.0469 L69.0438,63.9688 Z " fill="#000000"/><text fill="#000000" font-family="sans-serif" font-size="14" lengthAdjust="spacing" textLength="69" x="86.3" y="73.1436">loginView</text><line style="stroke:#181818;stroke-width:0.5;" x1="27.5" x2="182.5" y1="84.2969" y2="84.2969"/><line style="stroke:#181818;stroke-width:0.5;" x1="27.5" x2="182.5" y1="92.2969" y2="92.2969"/><ellipse cx="37.5" cy="103.2969" fill="#84BE84" rx="3" ry="3" style="stroke:#038048;stroke-width:1.0;"/><text fill="#000000" font-family="sans-serif" font-size="14" lengthAdjust="spacing" textLength="131" x="46.5" y="109.292">displayUsername()</text><ellipse cx="37.5" cy="119.5938" fill="#84BE84" rx="3" ry="3" style="stroke:#038048;stroke-width:1.0;"/><text fill="#000000" font-family="sans-serif" font-size="14" lengthAdjust="spacing" textLength="126" x="46.5" y="125.5889">displayPassword()</text></g><!--MD5=[70396a120f9d0d89fbfd479f3a645f53]
class MovieCollectionView--><g id="elem_MovieCollectionView"><rect codeLine="98" fill="#F1F1F1" height="80.5938" id="MovieCollectionView" rx="2.5" ry="2.5" style="stroke:#181818;stroke-width:0.5;" width="217" x="411.5" y="233.7969"/><ellipse cx="442.7" cy="249.7969" fill="#ADD1B2" rx="11" ry="11" style="stroke:#181818;stroke-width:1.0;"/><path d="M445.0438,245.4688 C444.1063,245.0313 443.5125,244.8906 442.6375,244.8906 C440.0125,244.8906 438.0125,246.9688 438.0125,249.6875 L438.0125,250.8125 C438.0125,253.3906 440.1219,255.2813 443.0125,255.2813 C444.2313,255.2813 445.3875,254.9844 446.1375,254.4375 C446.7156,254.0313 447.0438,253.5781 447.0438,253.1875 C447.0438,252.7344 446.6531,252.3438 446.1844,252.3438 C445.9656,252.3438 445.7625,252.4219 445.575,252.6094 C445.1219,253.0938 445.1219,253.0938 444.9344,253.1875 C444.5125,253.4531 443.825,253.5781 443.0594,253.5781 C441.0125,253.5781 439.7156,252.4844 439.7156,250.7813 L439.7156,249.6875 C439.7156,247.9063 440.9656,246.5938 442.7,246.5938 C443.2781,246.5938 443.8875,246.75 444.3563,247 C444.8406,247.2813 445.0125,247.5 445.1063,247.9063 C445.1688,248.3125 445.2,248.4375 445.3406,248.5625 C445.4813,248.7031 445.7156,248.8125 445.9344,248.8125 C446.2,248.8125 446.4656,248.6719 446.6375,248.4531 C446.7469,248.2969 446.7781,248.1094 446.7781,247.6875 L446.7781,246.2656 C446.7781,245.8281 446.7625,245.7031 446.6688,245.5469 C446.5125,245.2813 446.2313,245.1406 445.9344,245.1406 C445.6375,245.1406 445.4344,245.2344 445.2156,245.5469 L445.0438,245.4688 Z " fill="#000000"/><text fill="#000000" font-family="sans-serif" font-size="14" lengthAdjust="spacing" textLength="149" x="460.3" y="254.6436">MovieCollectionView</text><line style="stroke:#181818;stroke-width:0.5;" x1="412.5" x2="627.5" y1="265.7969" y2="265.7969"/><line style="stroke:#181818;stroke-width:0.5;" x1="412.5" x2="627.5" y1="273.7969" y2="273.7969"/><ellipse cx="422.5" cy="284.7969" fill="#84BE84" rx="3" ry="3" style="stroke:#038048;stroke-width:1.0;"/><text fill="#000000" font-family="sans-serif" font-size="14" lengthAdjust="spacing" textLength="71" x="431.5" y="290.792">initialize()</text><ellipse cx="422.5" cy="301.0938" fill="#84BE84" rx="3" ry="3" style="stroke:#038048;stroke-width:1.0;"/><text fill="#000000" font-family="sans-serif" font-size="14" lengthAdjust="spacing" textLength="191" x="431.5" y="307.0889">showMoviesForCollection()</text></g><!--MD5=[aea6f783ed26d2831cd18a3170179b1a]
class MovieList--><g id="elem_MovieList"><rect codeLine="103" fill="#F1F1F1" height="64.2969" id="MovieList" rx="2.5" ry="2.5" style="stroke:#181818;stroke-width:0.5;" width="102" x="658" y="604.7969"/><ellipse cx="673.9" cy="620.7969" fill="#ADD1B2" rx="11" ry="11" style="stroke:#181818;stroke-width:1.0;"/><path d="M676.2438,616.4688 C675.3063,616.0313 674.7125,615.8906 673.8375,615.8906 C671.2125,615.8906 669.2125,617.9688 669.2125,620.6875 L669.2125,621.8125 C669.2125,624.3906 671.3219,626.2813 674.2125,626.2813 C675.4313,626.2813 676.5875,625.9844 677.3375,625.4375 C677.9156,625.0313 678.2438,624.5781 678.2438,624.1875 C678.2438,623.7344 677.8531,623.3438 677.3844,623.3438 C677.1656,623.3438 676.9625,623.4219 676.775,623.6094 C676.3219,624.0938 676.3219,624.0938 676.1344,624.1875 C675.7125,624.4531 675.025,624.5781 674.2594,624.5781 C672.2125,624.5781 670.9156,623.4844 670.9156,621.7813 L670.9156,620.6875 C670.9156,618.9063 672.1656,617.5938 673.9,617.5938 C674.4781,617.5938 675.0875,617.75 675.5563,618 C676.0406,618.2813 676.2125,618.5 676.3063,618.9063 C676.3688,619.3125 676.4,619.4375 676.5406,619.5625 C676.6813,619.7031 676.9156,619.8125 677.1344,619.8125 C677.4,619.8125 677.6656,619.6719 677.8375,619.4531 C677.9469,619.2969 677.9781,619.1094 677.9781,618.6875 L677.9781,617.2656 C677.9781,616.8281 677.9625,616.7031 677.8688,616.5469 C677.7125,616.2813 677.4313,616.1406 677.1344,616.1406 C676.8375,616.1406 676.6344,616.2344 676.4156,616.5469 L676.2438,616.4688 Z " fill="#000000"/><text fill="#000000" font-family="sans-serif" font-size="14" lengthAdjust="spacing" textLength="68" x="688.1" y="625.6436">MovieList</text><line style="stroke:#181818;stroke-width:0.5;" x1="659" x2="759" y1="636.7969" y2="636.7969"/><text fill="#000000" font-family="sans-serif" font-size="14" lengthAdjust="spacing" textLength="90" x="664" y="653.792">List&lt;Movie&gt;</text><line style="stroke:#181818;stroke-width:0.5;" x1="659" x2="759" y1="661.0938" y2="661.0938"/></g><!--MD5=[8b7063fd68efbccaceac98ee6bb20386]
class MovieManagerView--><g id="elem_MovieListView"><rect codeLine="107" fill="#F1F1F1" height="80.5938" id="MovieManagerView" rx="2.5" ry="2.5" style="stroke:#181818;stroke-width:0.5;" width="134" x="642" y="423.2969"/><ellipse cx="657" cy="439.2969" fill="#ADD1B2" rx="11" ry="11" style="stroke:#181818;stroke-width:1.0;"/><path d="M659.3438,434.9688 C658.4063,434.5313 657.8125,434.3906 656.9375,434.3906 C654.3125,434.3906 652.3125,436.4688 652.3125,439.1875 L652.3125,440.3125 C652.3125,442.8906 654.4219,444.7813 657.3125,444.7813 C658.5313,444.7813 659.6875,444.4844 660.4375,443.9375 C661.0156,443.5313 661.3438,443.0781 661.3438,442.6875 C661.3438,442.2344 660.9531,441.8438 660.4844,441.8438 C660.2656,441.8438 660.0625,441.9219 659.875,442.1094 C659.4219,442.5938 659.4219,442.5938 659.2344,442.6875 C658.8125,442.9531 658.125,443.0781 657.3594,443.0781 C655.3125,443.0781 654.0156,441.9844 654.0156,440.2813 L654.0156,439.1875 C654.0156,437.4063 655.2656,436.0938 657,436.0938 C657.5781,436.0938 658.1875,436.25 658.6563,436.5 C659.1406,436.7813 659.3125,437 659.4063,437.4063 C659.4688,437.8125 659.5,437.9375 659.6406,438.0625 C659.7813,438.2031 660.0156,438.3125 660.2344,438.3125 C660.5,438.3125 660.7656,438.1719 660.9375,437.9531 C661.0469,437.7969 661.0781,437.6094 661.0781,437.1875 L661.0781,435.7656 C661.0781,435.3281 661.0625,435.2031 660.9688,435.0469 C660.8125,434.7813 660.5313,434.6406 660.2344,434.6406 C659.9375,434.6406 659.7344,434.7344 659.5156,435.0469 L659.3438,434.9688 Z " fill="#000000"/><text fill="#000000" font-family="sans-serif" font-size="14" lengthAdjust="spacing" textLength="102" x="671" y="444.1436">MovieManagerView</text><line style="stroke:#181818;stroke-width:0.5;" x1="643" x2="775" y1="455.2969" y2="455.2969"/><line style="stroke:#181818;stroke-width:0.5;" x1="643" x2="775" y1="463.2969" y2="463.2969"/><ellipse cx="653" cy="474.2969" fill="#84BE84" rx="3" ry="3" style="stroke:#038048;stroke-width:1.0;"/><text fill="#000000" font-family="sans-serif" font-size="14" lengthAdjust="spacing" textLength="67" x="662" y="480.292">initalize()</text><ellipse cx="653" cy="490.5938" fill="#84BE84" rx="3" ry="3" style="stroke:#038048;stroke-width:1.0;"/><text fill="#000000" font-family="sans-serif" font-size="14" lengthAdjust="spacing" textLength="74" x="662" y="496.5889">paginate()</text></g><!--MD5=[67ecf152a70418035996d98154c44614]
reverse link MovieManagerView to MovieList--><g id="link_MovieListView_MovieList"><path codeLine="112" d="M709,524.5949 C709,551.5649 709,582.2959 709,604.6069 " fill="none" id="MovieManagerView-backto-MovieList" style="stroke:#181818;stroke-width:1.0;"/><polygon fill="none" points="702,524.4579,709,504.4579,716,524.4579,702,524.4579" style="stroke:#181818;stroke-width:1.0;"/></g><!--MD5=[17a4ec9f9dfb5efcca435dee8e5dbb41]
reverse link MovieList to Movie--><g id="link_MovieList_Movie"><path codeLine="113" d="M709,689.1039 C709,707.3739 709,729.3919 709,753.2439 " fill="none" id="MovieList-backto-Movie" style="stroke:#181818;stroke-width:1.0;"/><polygon fill="none" points="702,688.8039,709,668.8039,716,688.8039,702,688.8039" style="stroke:#181818;stroke-width:1.0;"/></g><!--MD5=[2fd8ba8177e331f89667a6fd82556e14]
reverse link User to MovieCollection--><g id="link_User_MovieCollection"><path codeLine="114" d="M352.102,531.0139 C382.552,550.0179 415.152,570.3629 443.448,588.0219 " fill="none" id="User-backto-MovieCollection" style="stroke:#181818;stroke-width:1.0;"/><polygon fill="none" points="348.221,536.8429,334.96,520.3159,355.633,524.9659,348.221,536.8429" style="stroke:#181818;stroke-width:1.0;"/></g><!--MD5=[8d6c69c81d8a5f1564ef0a4844aa0038]
reverse link MovieCollectionView to MovieCollectionList--><g id="link_MovieCollectionView_MovieCollectionList"><path codeLine="115" d="M520,335.3769 C520,364.0729 520,397.6219 520,423.0899 " fill="none" id="MovieCollectionView-backto-MovieCollectionList" style="stroke:#181818;stroke-width:1.0;"/><polygon fill="none" points="513,335.0609,520,315.0609,527,335.0609,513,335.0609" style="stroke:#181818;stroke-width:1.0;"/></g><!--MD5=[9297fe4ff0dfb8e9f48d5b774c3ab166]
reverse link loginView to LoginManager--><g id="link_loginView_LoginManager"><path codeLine="116" d="M105,153.6869 C105,168.8669 105,185.3369 105,201.0669 " fill="none" id="loginView-backto-LoginManager" style="stroke:#181818;stroke-width:1.0;"/><polygon fill="none" points="98.0001,153.6369,105,133.6369,112,153.6369,98.0001,153.6369" style="stroke:#181818;stroke-width:1.0;"/></g><!--MD5=[24527cd096fa7767097b588e64555f49]
reverse link LoginManager to User--><g id="link_LoginManager_User"><path codeLine="117" d="M171.344,363.5209 C182.532,378.3979 193.86,393.4619 204.196,407.2069 " fill="none" id="LoginManager-backto-User" style="stroke:#181818;stroke-width:1.0;"/><polygon fill="none" points="165.738,367.7129,159.313,347.5209,176.928,359.2989,165.738,367.7129" style="stroke:#181818;stroke-width:1.0;"/></g><!--MD5=[ad61ede09d2cd655a07f30bb829cf9f0]
reverse link MovieCollectionList to MovieCollection--><g id="link_MovieCollectionList_MovieCollection"><path codeLine="118" d="M520,524.6829 C520,545.4659 520,568.4729 520,588.1359 " fill="none" id="MovieCollectionList-backto-MovieCollection" style="stroke:#181818;stroke-width:1.0;"/><polygon fill="none" points="513,524.4579,520,504.4579,527,524.4579,513,524.4579" style="stroke:#181818;stroke-width:1.0;"/></g><!--MD5=[c7bc1054ce154459bf45916fb9646d02]
reverse link IJsonOperator to MovieJsonOperator--><g id="link_IJsonOperator_MovieJsonOperator"><path codeLine="119" d="M951.779,540.7599 C951.39,554.0519 950.992,567.6559 950.624,580.2639 " fill="none" id="IJsonOperator-backto-MovieJsonOperator" style="stroke:#181818;stroke-width:1.0;"/><polygon fill="none" points="944.795,540.1029,952.377,520.3159,958.789,540.5119,944.795,540.1029" style="stroke:#181818;stroke-width:1.0;"/></g><!--MD5=[4b56c152e439b0893c49e981054ce514]
reverse link Ratings_List to Ratings--><g id="link_Ratings_List_Ratings"><path codeLine="120" d="M707,161.5769 C707,185.8869 707,212.4969 707,233.6369 " fill="none" id="Ratings_List-backto-Ratings" style="stroke:#181818;stroke-width:1.0;"/><polygon fill="none" points="700,161.4269,707,141.4269,714,161.4269,700,161.4269" style="stroke:#181818;stroke-width:1.0;"/></g><!--MD5=[2901fd3092c4e2482453aaf6135b5e48]
reverse link MovieCollection to Movie--><g id="link_MovieCollection_Movie"><path codeLine="121" d="M553.145,703.5609 C577.09,751.0699 610.292,816.9479 639.901,875.6949 " fill="none" id="MovieCollection-backto-Movie" style="stroke:#181818;stroke-width:1.0;"/><polygon fill="none" points="546.879,706.6819,544.129,685.6719,559.381,700.3809,546.879,706.6819" style="stroke:#181818;stroke-width:1.0;"/></g><!--MD5=[4a28519c4e08c6741c65da08bc1bec00]
reverse link MovieJsonOperator to Movie--><g id="link_MovieJsonOperator_Movie"><path codeLine="122" d="M902.537,710.2999 C893.406,724.5529 883.9,739.3939 875,753.2969 C843.137,803.0679 807.852,858.2209 778.037,904.8369 " fill="none" id="MovieJsonOperator-backto-Movie" style="stroke:#181818;stroke-width:1.0;"/><polygon fill="none" points="896.739,706.3729,913.423,693.3089,908.528,713.9249,896.739,706.3729" style="stroke:#181818;stroke-width:1.0;"/></g><!--MD5=[90aa5c5a9c9632c74ce62b2ecf5f0555]
reverse link MovieJsonOperator to JsonMovieFile--><g id="link_MovieJsonOperator_JsonMovieFile"><path codeLine="123" d="M949,713.6269 C949,809.7549 949,967.4899 949,1004.7379 " fill="none" id="MovieJsonOperator-backto-JsonMovieFile" style="stroke:#181818;stroke-width:1.0;"/><polygon fill="none" points="942,713.5329,949,693.5329,956,713.5329,942,713.5329" style="stroke:#181818;stroke-width:1.0;"/></g><!--MD5=[ff69b535cd7a6f153dcc2eba30d938dd]
reverse link LoginView to User--><g id="link_UserView_User"><path codeLine="124" d="M275.859,326.2469 C270.393,351.2419 263.798,381.4059 258.197,407.0189 " fill="none" id="LoginView-backto-User" style="stroke:#181818;stroke-width:1.0;"/><polygon fill="none" points="269.027,324.7229,280.138,306.6799,282.703,327.7139,269.027,324.7229" style="stroke:#181818;stroke-width:1.0;"/></g><!--MD5=[2943c380981a3d445d45d5b6cda6dd3c]
@startuml
title Class Diagram

circle JsonMovieFile

Interface IJsonOperator {
  +IJsonOperator(string filename)
  +Get(int id): json
  +Search(string key, string value): json
  +Sort(string key): json
}

class MovieJsonOperator {
  +JsonOperator(string filename)
  +Get(int id): Movie
  +Search(string key, string value): Movie
  +Sort(string key): Movie
}

class LoginManager {
  +createUser()
  +verifyLogIn()
  +logInUser()
  +logOutUser()
  +updateUserStatus()
  +updateUserPermission()
}

class Ratings {
  +source
  +value
}

class Ratings_List {
  -Ratings[]
  +appendRating()
  -removeRating()
}

class Movie {
  -jsonSingleEntry
  -title
  -year
  -rated
  -released
  -runtime
  -genre
  -director
  -writer
  -actor_list
  -plot
  -language
  -country
  -plot
  -language_list
  -country
  -awards
  -poster
  -Rating_List
  -metascore
  -imdbRating
  -imdbVotes
  -imdbID
  -type
  -dvd_release
  -box_office
  -production
  -website
  -response
}

class User {
  -username
  -password_hashed
  -privledge_type
  -movie_collections: MovieCollectionList
}

class LoginView {
  +initialize()
}

class MovieCollectionList {
  +appendCollection()
  +removeCollection()
}

class MovieCollection {
  +addMovie(MovieID)
  +removeMovie(MovieID)
  List<Movie>
}

class loginView {
  +displayUsername()
  +displayPassword()
}

class MovieCollectionView {
  +initialize()
  +showMoviesForCollection()
}

class MovieList {
  List<Movie>
}

class MovieManagerView {
  +initalize()
  +paginate()
}

MovieManagerView <|- - MovieList
MovieList <|- - Movie
User <|- - MovieCollection
MovieCollectionView <|- - MovieCollectionList
loginView <|- - LoginManager
LoginManager <|- - User
MovieCollectionList <|- - MovieCollection
IJsonOperator <|- - MovieJsonOperator
Ratings_List <|- - Ratings
MovieCollection <|- - Movie
MovieJsonOperator <|- - Movie
MovieJsonOperator <|- - JsonMovieFile
LoginView <|- - User
@enduml

PlantUML version 1.2022.3beta2(Unknown compile time)
(GPL source distribution)
Java Runtime: Java(TM) SE Runtime Environment
JVM: Java HotSpot(TM) 64-Bit Server VM
Default Encoding: UTF-8
Language: en
Country: US
--></g></svg>